<?xml version="1.0" encoding="UTF-8" standalone="no"?>
<!-- Generator: Adobe Illustrator 16.0.0, SVG Export Plug-In . SVG Version: 6.00 Build 0)  -->

<svg
   xmlns:dc="http://purl.org/dc/elements/1.1/"
   xmlns:cc="http://creativecommons.org/ns#"
   xmlns:rdf="http://www.w3.org/1999/02/22-rdf-syntax-ns#"
   xmlns:sodipodi="http://sodipodi.sourceforge.net/DTD/sodipodi-0.dtd"
   xmlns:inkscape="http://www.inkscape.org/namespaces/inkscape"
   xmlns="http://www.w3.org/2000/svg"
   version="1.1"
   id="Layer_1"
   x="0px"
   y="0px"
   width="52px"
   height="52px"
   viewBox="0 0 52 52"
   enable-background="new 0 0 52 52"
   xml:space="preserve"
   inkscape:version="0.48.1 r9760"
   sodipodi:docname="mark_neutral.svg"><metadata
   id="metadata3069"><rdf:RDF><cc:Work
       rdf:about=""><dc:format>image/svg+xml</dc:format><dc:type
         rdf:resource="http://purl.org/dc/dcmitype/StillImage" /></cc:Work></rdf:RDF></metadata><defs
   id="defs3067">
	
	
</defs><sodipodi:namedview
   pagecolor="#ffffff"
   bordercolor="#666666"
   borderopacity="1"
   objecttolerance="10"
   gridtolerance="10"
   guidetolerance="10"
   inkscape:pageopacity="0"
   inkscape:pageshadow="2"
   inkscape:window-width="1261"
   inkscape:window-height="965"
   id="namedview3065"
   showgrid="false"
   inkscape:zoom="5.6153846"
   inkscape:cx="28.355066"
   inkscape:cy="26"
   inkscape:window-x="118"
   inkscape:window-y="116"
   inkscape:window-maximized="0"
   inkscape:current-layer="Layer_1" />
<g
   id="g3841"><path
     d="m 26,0 v 16.597 c 5.193,0 9.402,4.209 9.402,9.401 0,2.596 -1.051,4.946 -2.752,6.648 L 44.386,44.381 C 49.09,39.676 51.998,33.177 51.998,25.998 51.999,11.641 40.359,0 26,0 z"
     id="path3061"
     inkscape:connector-curvature="0"
     style="opacity:0.50000000000000000;fill:#333333;fill-opacity:1" /><path
     d="m 26,35.402 c -5.193,0 -9.402,-4.21 -9.402,-9.403 0,-5.192 4.209,-9.401 9.402,-9.401 h 0 V 0 C 11.641,0 0,11.64 0,26 c 0,14.358 11.641,25.999 26,25.999 7.18,0 13.679,-2.911 18.386,-7.616 L 32.65,32.647 c -1.702,1.702 -4.052,2.755 -6.65,2.755 z"
     id="path3063"
     inkscape:connector-curvature="0"
     style="fill:#333333;fill-opacity:1" /></g>
</svg>